<svg width="32" height="32" viewBox="0 0 32 32" fill="none" xmlns="http://www.w3.org/2000/svg">
<g clip-path="url(#clip0_10_1742)">
<path d="M16.0006 2.88125C20.2756 2.88125 20.7819 2.9 22.4631 2.975C24.0256 3.04375 24.8694 3.30625 25.4319 3.525C26.1756 3.8125 26.7131 4.1625 27.2694 4.71875C27.8319 5.28125 28.1756 5.8125 28.4631 6.55625C28.6819 7.11875 28.9444 7.96875 29.0131 9.525C29.0881 11.2125 29.1069 11.7188 29.1069 15.9875C29.1069 20.2625 29.0881 20.7688 29.0131 22.45C28.9444 24.0125 28.6819 24.8563 28.4631 25.4188C28.1756 26.1625 27.8256 26.7 27.2694 27.2563C26.7069 27.8188 26.1756 28.1625 25.4319 28.45C24.8694 28.6688 24.0194 28.9313 22.4631 29C20.7756 29.075 20.2694 29.0938 16.0006 29.0938C11.7256 29.0938 11.2194 29.075 9.53811 29C7.97561 28.9313 7.13186 28.6688 6.56936 28.45C5.82561 28.1625 5.28811 27.8125 4.73186 27.2563C4.16936 26.6938 3.82561 26.1625 3.53811 25.4188C3.31936 24.8563 3.05686 24.0063 2.98811 22.45C2.91311 20.7625 2.89436 20.2563 2.89436 15.9875C2.89436 11.7125 2.91311 11.2062 2.98811 9.525C3.05686 7.9625 3.31936 7.11875 3.53811 6.55625C3.82561 5.8125 4.17561 5.275 4.73186 4.71875C5.29436 4.15625 5.82561 3.8125 6.56936 3.525C7.13186 3.30625 7.98186 3.04375 9.53811 2.975C11.2194 2.9 11.7256 2.88125 16.0006 2.88125ZM16.0006 0C11.6569 0 11.1131 0.01875 9.40686 0.09375C7.70686 0.16875 6.53811 0.44375 5.52561 0.8375C4.46936 1.25 3.57561 1.79375 2.68811 2.6875C1.79436 3.575 1.25061 4.46875 0.83811 5.51875C0.44436 6.5375 0.16936 7.7 0.0943604 9.4C0.0193604 11.1125 0.000610352 11.6563 0.000610352 16C0.000610352 20.3438 0.0193604 20.8875 0.0943604 22.5938C0.16936 24.2938 0.44436 25.4625 0.83811 26.475C1.25061 27.5313 1.79436 28.425 2.68811 29.3125C3.57561 30.2 4.46936 30.75 5.51936 31.1563C6.53811 31.55 7.70061 31.825 9.40061 31.9C11.1069 31.975 11.6506 31.9937 15.9944 31.9937C20.3381 31.9937 20.8819 31.975 22.5881 31.9C24.2881 31.825 25.4569 31.55 26.4694 31.1563C27.5194 30.75 28.4131 30.2 29.3006 29.3125C30.1881 28.425 30.7381 27.5313 31.1444 26.4813C31.5381 25.4625 31.8131 24.3 31.8881 22.6C31.9631 20.8938 31.9819 20.35 31.9819 16.0063C31.9819 11.6625 31.9631 11.1188 31.8881 9.4125C31.8131 7.7125 31.5381 6.54375 31.1444 5.53125C30.7506 4.46875 30.2069 3.575 29.3131 2.6875C28.4256 1.8 27.5319 1.25 26.4819 0.84375C25.4631 0.45 24.3006 0.175 22.6006 0.1C20.8881 0.01875 20.3444 0 16.0006 0Z" fill="#000100"/>
<path d="M16.0006 7.78125C11.4631 7.78125 7.78186 11.4625 7.78186 16C7.78186 20.5375 11.4631 24.2188 16.0006 24.2188C20.5381 24.2188 24.2194 20.5375 24.2194 16C24.2194 11.4625 20.5381 7.78125 16.0006 7.78125ZM16.0006 21.3312C13.0569 21.3312 10.6694 18.9438 10.6694 16C10.6694 13.0563 13.0569 10.6687 16.0006 10.6687C18.9444 10.6687 21.3319 13.0563 21.3319 16C21.3319 18.9438 18.9444 21.3312 16.0006 21.3312Z" fill="#000100"/>
<path d="M26.4631 7.45635C26.4631 8.51885 25.6006 9.3751 24.5444 9.3751C23.4819 9.3751 22.6256 8.5126 22.6256 7.45635C22.6256 6.39385 23.4881 5.5376 24.5444 5.5376C25.6006 5.5376 26.4631 6.4001 26.4631 7.45635Z" fill="#000100"/>
</g>
<defs>
<clipPath id="clip0_10_1742">
<rect width="32" height="32" fill="white" transform="translate(0.000610352)"/>
</clipPath>
</defs>
</svg>
