<svg width="32" height="32" viewBox="0 0 32 32" fill="none" xmlns="http://www.w3.org/2000/svg">
<g clip-path="url(#clip0_10_1743)">
<path d="M31.3633 8.24729C31.1823 7.56651 30.8258 6.94519 30.3293 6.4455C29.8328 5.94582 29.2138 5.5853 28.5342 5.40002C26.0323 4.7273 16.0323 4.72729 16.0323 4.72729C16.0323 4.72729 6.03235 4.7273 3.53053 5.40002C2.85092 5.5853 2.23189 5.94582 1.7354 6.4455C1.2389 6.94519 0.882356 7.56651 0.70144 8.24729C0.0323487 10.76 0.0323486 16 0.0323486 16C0.0323486 16 0.0323487 21.24 0.70144 23.7527C0.882356 24.4335 1.2389 25.0549 1.7354 25.5545C2.23189 26.0542 2.85092 26.4147 3.53053 26.6C6.03235 27.2727 16.0323 27.2727 16.0323 27.2727C16.0323 27.2727 26.0323 27.2727 28.5342 26.6C29.2138 26.4147 29.8328 26.0542 30.3293 25.5545C30.8258 25.0549 31.1823 24.4335 31.3633 23.7527C32.0324 21.24 32.0323 16 32.0323 16C32.0323 16 32.0324 10.76 31.3633 8.24729Z" fill="#FF0302"/>
<path d="M12.7596 20.7583V11.2419L21.1233 16.0001L12.7596 20.7583Z" fill="#FEFEFE"/>
</g>
<defs>
<clipPath id="clip0_10_1743">
<rect width="32" height="32" fill="white" transform="translate(0.000610352)"/>
</clipPath>
</defs>
</svg>
