<svg width="40" height="40" viewBox="0 0 40 40" fill="none" xmlns="http://www.w3.org/2000/svg">
<mask id="mask0_66_665" style="mask-type:luminance" maskUnits="userSpaceOnUse" x="0" y="0" width="40" height="40">
<path d="M0 0H40V40H0V0Z" fill="white"/>
</mask>
<g mask="url(#mask0_66_665)">
<path d="M40 20C40 31.0453 31.0453 40 20 40C8.95469 40 0 31.0453 0 20C0 8.95469 8.95469 0 20 0C31.0458 0 40 8.95469 40 20Z" fill="#091839"/>
</g>
<path d="M20.1445 11.6218C20.3679 11.765 20.4435 11.9655 20.3716 12.2238C20.3242 12.3488 20.2622 12.4666 20.1862 12.5759C20.0612 12.7525 19.9132 12.9103 19.7424 13.0488C18.9393 13.7311 18.0174 14.1509 16.9757 14.3093C16.7466 14.3468 16.5174 14.3874 16.2882 14.4301C16.1841 14.4541 16.0867 14.4488 15.9966 14.4155C15.9382 14.3921 15.9091 14.3546 15.9091 14.303C15.9143 14.2796 15.9226 14.2567 15.9341 14.2343C15.9466 14.2124 15.9601 14.1983 15.9757 14.1926C16.0518 14.1509 16.1304 14.1228 16.2112 14.1072C16.3122 14.0895 16.4153 14.0712 16.5195 14.053C16.5945 14.0478 16.6705 14.0374 16.7487 14.0218C17.2653 13.9275 17.7382 13.7546 18.1674 13.503C18.5966 13.252 18.995 12.94 19.3632 12.5676C19.4726 12.4634 19.556 12.34 19.6132 12.1968C19.6757 12.0249 19.6268 11.9025 19.4674 11.8301C19.2591 11.7541 19.0471 11.7134 18.832 11.7093C18.5612 11.7093 18.2935 11.7093 18.0299 11.7093C17.9159 11.7093 17.8013 11.7093 17.6862 11.7093C17.0039 11.7093 16.3247 11.7457 15.6487 11.8176C14.9737 11.8884 14.2987 11.9718 13.6237 12.0676C12.5513 12.2051 11.4825 12.3718 10.4174 12.5676C10.4226 12.7108 10.4257 12.8541 10.4257 12.9968C10.4257 14.8124 10.4257 16.6249 10.4257 18.4343C10.4257 19.0317 10.4257 19.628 10.4257 20.2238C10.4257 20.8072 10.4257 21.3895 10.4257 21.9697C10.4257 23.6478 10.4257 25.3259 10.4257 27.0051C10.4257 27.4509 10.4179 27.8973 10.4028 28.3447C10.4028 28.5848 10.2882 28.6853 10.0591 28.6468C9.94345 28.6285 9.87679 28.566 9.85908 28.4593C9.85908 28.4119 9.85596 28.3645 9.85075 28.3176C9.83252 28.102 9.82366 27.8822 9.82366 27.6572C9.81793 26.2155 9.81533 24.7686 9.81533 23.3176C9.81533 19.7707 9.81533 16.2238 9.81533 12.678C9.80543 12.6853 9.79346 12.6884 9.77991 12.6884C9.74658 12.6942 9.71533 12.6999 9.68616 12.7051C8.8372 12.8718 7.99762 13.0697 7.16741 13.2988C6.33668 13.528 5.51793 13.7978 4.71116 14.1072C4.42366 14.2145 4.13929 14.3337 3.85908 14.4655C3.77262 14.5046 3.69085 14.5426 3.61325 14.5801C3.45595 14.6374 3.33252 14.74 3.24241 14.8884C3.17991 14.9791 3.08512 15.0254 2.95908 15.028C2.83252 15.0311 2.72054 14.9962 2.62366 14.9238C2.54866 14.853 2.53929 14.7775 2.59658 14.6968C2.65908 14.6108 2.7346 14.5379 2.82366 14.478C2.9122 14.4186 3.00595 14.3624 3.10491 14.3093C3.59658 14.0593 4.09762 13.8421 4.60908 13.6572C5.90908 13.1837 7.232 12.7999 8.57783 12.5051C8.99137 12.4192 9.40387 12.3374 9.81533 12.2593C9.82054 12.1733 9.82627 12.09 9.832 12.0093C9.8497 11.8999 9.90283 11.8233 9.99033 11.7801C10.0789 11.7374 10.1784 11.7421 10.2882 11.7947C10.3685 11.8395 10.407 11.9082 10.4028 12.0009C10.4028 12.0509 10.4049 12.102 10.4091 12.153C11.3992 11.9822 12.3929 11.8275 13.3903 11.6884C14.4263 11.54 15.4664 11.4254 16.5112 11.3447C17.3237 11.2879 18.1372 11.2801 18.9528 11.3218C19.2153 11.3374 19.4757 11.3775 19.7341 11.4426C19.8825 11.4759 20.0195 11.5358 20.1445 11.6218Z" fill="#FBD760"/>
<path d="M12.7883 23.5842C13.0019 23.5842 13.0779 23.6874 13.0154 23.8926C12.9862 23.9733 12.9534 24.0483 12.9175 24.1176C12.8842 24.1801 12.8362 24.2217 12.7737 24.2426C12.7112 24.2624 12.6446 24.2571 12.5737 24.228C12.5164 24.2045 12.4852 24.1644 12.48 24.1071C12.4743 24.0155 12.4769 23.9217 12.4883 23.8259C12.506 23.654 12.606 23.5733 12.7883 23.5842Z" fill="#FBD760"/>
<path d="M24.5157 22.0448C24.5491 22.0573 24.5657 22.0854 24.5657 22.1281C24.5657 22.1713 24.5553 22.2187 24.5345 22.2698C24.5136 22.3198 24.498 22.363 24.4886 22.3989C24.1261 23.2463 23.6975 24.0573 23.2032 24.8323C22.7084 25.6083 22.1147 26.2927 21.422 26.8844C21.0538 27.1885 20.6663 27.4635 20.2595 27.7094C19.8522 27.9562 19.4142 28.1635 18.9449 28.3302C18.6475 28.437 18.3772 28.512 18.1345 28.5552C17.8913 28.5979 17.6079 28.6166 17.2845 28.6114C17.1022 28.6166 16.9199 28.612 16.7366 28.5969C16.5532 28.5828 16.3678 28.551 16.1803 28.501C15.3121 28.2536 14.6668 27.7265 14.2449 26.9198C14.1017 26.6375 13.9897 26.3521 13.9095 26.0635C13.8288 25.7745 13.7689 25.4844 13.7303 25.1927C13.6314 24.4125 13.6272 23.6442 13.7178 22.8885C13.8397 21.8385 14.0522 20.8302 14.3553 19.8635C14.6595 18.8958 15.0433 17.9651 15.5074 17.0719C16.0126 16.0802 16.6334 15.1713 17.3699 14.3448C17.8808 13.7729 18.4636 13.2833 19.1178 12.876C19.6038 12.5666 20.1454 12.3635 20.7428 12.2677C21.0053 12.2208 21.2704 12.2323 21.5386 12.3031C21.9579 12.4047 22.2246 12.6625 22.3386 13.076C22.4204 13.4125 22.4204 13.8281 22.3386 14.3239C22.2579 14.8198 22.1303 15.3375 21.9553 15.876C21.7814 16.4151 21.5886 16.9151 21.3761 17.376C21.1636 17.8375 20.9689 18.2047 20.7928 18.4781C20.7397 18.5489 20.6767 18.5916 20.6032 18.6052C20.5293 18.6192 20.447 18.6146 20.3553 18.5906C20.3079 18.5812 20.2699 18.5562 20.2407 18.5156C20.2126 18.4755 20.2079 18.438 20.2261 18.4031C20.2413 18.3463 20.2636 18.2922 20.2928 18.2406C20.3053 18.2114 20.3199 18.1802 20.3366 18.1469C20.4001 17.9901 20.4751 17.8177 20.5616 17.6302C20.7491 17.2109 20.9439 16.7521 21.147 16.2531C21.3511 15.7547 21.5163 15.2583 21.6428 14.7635C21.7689 14.2692 21.8147 13.8213 21.7803 13.4198C21.7178 12.7422 21.3741 12.4896 20.7491 12.6614C20.4741 12.7364 20.2178 12.8364 19.9803 12.9614C19.7428 13.0864 19.5147 13.2276 19.297 13.3844C18.8621 13.7 18.4657 14.05 18.1074 14.4344C17.7491 14.8177 17.4209 15.2271 17.1241 15.6614C15.6558 17.7979 14.7538 20.2187 14.4178 22.9239C14.3189 23.7073 14.322 24.5067 14.4261 25.3219C14.4829 25.7911 14.6199 26.2521 14.8366 26.7052C15.0543 27.1495 15.3136 27.4896 15.6136 27.726C15.9147 27.962 16.2272 28.1166 16.5511 28.1906C16.8761 28.2656 17.1814 28.2854 17.4678 28.251C17.9704 28.1937 18.4433 28.0625 18.8866 27.8573C19.7668 27.4557 20.4866 27.0286 21.0449 26.576C21.6032 26.1229 22.072 25.6469 22.4511 25.1469C22.8303 24.6479 23.185 24.1276 23.5157 23.5844C23.6475 23.3677 23.7621 23.1594 23.8595 22.9594C23.973 22.7219 24.1225 22.4573 24.3074 22.1656C24.3699 22.0739 24.4392 22.0338 24.5157 22.0448Z" fill="#FBD760"/>
<path d="M26.542 22.6385C26.592 22.5375 26.6259 22.4906 26.6441 22.4989C26.6618 22.5062 26.666 22.5469 26.6566 22.6219C26.6483 22.6958 26.6321 22.7791 26.6087 22.8719C26.5754 23.0151 26.517 23.1812 26.4337 23.3698C26.3504 23.5588 26.2577 23.7302 26.1566 23.8844C26.0051 24.0984 25.8176 24.2594 25.5941 24.3677C25.3717 24.475 25.1702 24.501 24.9899 24.4469C24.8092 24.3927 24.7045 24.2219 24.6754 23.9344C24.6696 23.6958 24.6905 23.4333 24.7379 23.1469C24.753 23.026 24.7696 22.9088 24.7879 22.7948C24.7879 22.7531 24.7774 22.7213 24.7566 22.6989C24.7358 22.6771 24.7087 22.6687 24.6754 22.6739C24.6514 22.6739 24.6259 22.6739 24.5983 22.6739C24.4535 22.6979 24.3077 22.6948 24.1608 22.6656C23.9832 22.613 23.8806 22.525 23.8524 22.401C23.8233 22.2776 23.8254 22.1156 23.8587 21.9156C23.8769 21.7729 23.9306 21.6656 24.0191 21.5948C24.1077 21.5229 24.2118 21.4927 24.3316 21.5052C24.4983 21.5208 24.5785 21.5844 24.5733 21.6969C24.5691 21.8094 24.5379 21.9291 24.4795 22.0552C24.428 22.1625 24.4009 22.2521 24.3983 22.3239C24.3952 22.3948 24.4566 22.4198 24.5816 22.3989C24.6108 22.3922 24.642 22.3833 24.6754 22.3719C24.7222 22.3541 24.7759 22.338 24.8358 22.3239C24.8952 22.3104 24.9733 22.3068 25.0691 22.3135C25.1842 22.3193 25.2608 22.3719 25.2983 22.4719C25.3358 22.5719 25.3514 22.6979 25.3462 22.8489C25.342 23.0005 25.328 23.1541 25.3045 23.3094C25.2754 23.5052 25.2608 23.6734 25.2608 23.8135C25.2608 23.9526 25.3009 24.0333 25.3816 24.0552C25.4884 24.0844 25.6483 23.988 25.8608 23.7656C26.0733 23.5422 26.3004 23.1666 26.542 22.6385Z" fill="#FBD760"/>
<path d="M30.8596 22.503C30.7888 22.7212 30.6471 22.9717 30.4346 23.2551C30.2221 23.5374 29.9565 23.7186 29.6388 23.7988C29.3221 23.8796 29.0476 23.8686 28.8159 23.7655C28.5836 23.6629 28.456 23.3874 28.4325 22.9384C28.17 23.4499 27.919 23.777 27.6805 23.9197C27.443 24.0629 27.195 24.1176 26.9367 24.0842C26.645 24.0374 26.4476 23.9238 26.345 23.7447C26.2424 23.5645 26.2086 23.3566 26.243 23.1217C26.2763 22.8858 26.3482 22.6592 26.4575 22.4426C26.5419 22.2816 26.6607 22.1322 26.8138 21.9947C26.9664 21.8561 27.1263 21.7478 27.293 21.6697C27.4982 21.5655 27.7055 21.5165 27.9138 21.5217C28.1221 21.5259 28.345 21.5947 28.5825 21.728C28.5867 21.7337 28.5888 21.728 28.5888 21.7113C28.5888 21.6895 28.594 21.6608 28.6055 21.6259C28.618 21.59 28.6388 21.5613 28.668 21.5405C28.7456 21.4837 28.8378 21.4551 28.945 21.4551C29.0518 21.4551 29.1336 21.5087 29.1909 21.6155C29.2018 21.753 29.1872 21.929 29.1471 22.1426C29.0622 22.6108 29.0622 22.9478 29.1471 23.153C29.2331 23.3587 29.3846 23.4546 29.6013 23.4405C29.819 23.427 30.1013 23.2124 30.4471 22.7967C30.794 22.3816 30.9315 22.2837 30.8596 22.503ZM27.0159 23.603C27.1351 23.6895 27.2721 23.6775 27.4263 23.5676C27.5815 23.4582 27.731 23.303 27.8742 23.103C28.0169 22.903 28.1372 22.703 28.2346 22.503C28.3331 22.302 28.3872 22.1525 28.3971 22.0551C28.1055 21.8999 27.8555 21.8733 27.6471 21.9759C27.4388 22.079 27.2726 22.2467 27.1492 22.4801C27.0253 22.7134 26.9518 22.9405 26.9284 23.1613C26.906 23.3811 26.9351 23.528 27.0159 23.603Z" fill="#FBD760"/>
<path d="M34.6712 23.0093C34.3671 23.3968 34.0827 23.6468 33.8192 23.7593C33.5567 23.8718 33.3192 23.9 33.1067 23.8427C32.8942 23.7843 32.7098 23.6906 32.5546 23.5614C32.4004 23.4323 32.2869 23.3229 32.215 23.2323C32.1858 23.2031 32.165 23.1838 32.1525 23.1739C32.3468 23.4755 32.4827 23.8698 32.5608 24.3573C32.64 24.8448 32.639 25.2718 32.5587 25.6385C32.4822 25.9145 32.3348 26.0864 32.1171 26.1531C31.9004 26.2208 31.6754 26.1666 31.4421 25.9906C31.303 25.8698 31.1931 25.726 31.1129 25.5593C30.9754 25.2911 30.8723 25.0114 30.8046 24.7198C30.6947 24.3005 30.6238 23.876 30.5921 23.4468C30.5619 23.0177 30.552 22.5854 30.5629 22.1489C30.5863 21.5239 30.6494 20.9052 30.7525 20.2927C30.8551 19.6791 30.99 19.0687 31.1567 18.4614C31.2551 18.0713 31.3926 17.6171 31.5692 17.0989C31.7468 16.5812 31.9655 16.0875 32.2254 15.6177C32.4863 15.1468 32.791 14.7864 33.14 14.5364C33.291 14.427 33.4577 14.3552 33.64 14.3218C34.1093 14.2468 34.441 14.3026 34.6358 14.4885C34.8317 14.675 34.9197 14.9541 34.9004 15.326C34.8806 15.6984 34.7879 16.127 34.6212 16.6114C34.4546 17.0948 34.2431 17.5948 33.9879 18.1114C33.7322 18.627 33.4681 19.1218 33.1962 19.5968C32.9238 20.0718 32.6718 20.4885 32.44 20.8468C32.2093 21.2052 32.0317 21.4677 31.9067 21.6343C31.8692 21.6859 31.8285 21.7406 31.7858 21.7989C31.766 21.827 31.7426 21.8583 31.715 21.8927C32.1202 22.4802 32.4796 22.8838 32.7921 23.1031C33.1046 23.3213 33.3765 23.4177 33.6087 23.3927C33.8405 23.3666 34.0384 23.2817 34.2025 23.1385C34.366 22.9958 34.4988 22.8526 34.6004 22.7093C34.7098 22.5651 34.791 22.4927 34.8442 22.4927C34.9244 22.5166 34.94 22.5791 34.89 22.6802C34.841 22.7802 34.7681 22.8901 34.6712 23.0093ZM31.3275 21.2114C31.3035 21.3781 31.3077 21.4843 31.34 21.5302C31.3733 21.576 31.4473 21.5187 31.5629 21.3573C31.739 21.113 31.9587 20.7817 32.2212 20.3635C32.4848 19.9458 32.7598 19.4823 33.0462 18.9739C33.3322 18.4656 33.59 17.951 33.8192 17.4302C34.0483 16.9093 34.214 16.4229 34.3171 15.9698C34.4212 15.5171 34.4275 15.1395 34.3358 14.8364C34.291 14.7104 34.2113 14.6323 34.0962 14.6031C33.9822 14.5739 33.8587 14.5948 33.7254 14.6656C33.4447 14.8239 33.1869 15.1073 32.9525 15.5156C32.7176 15.9229 32.5072 16.3942 32.3212 16.9302C32.1348 17.4651 31.9733 18.0114 31.8358 18.5698C31.6983 19.1281 31.5863 19.6416 31.5004 20.1093C31.414 20.576 31.3567 20.9437 31.3275 21.2114ZM31.5275 24.7364C31.6285 25.1323 31.7181 25.4145 31.7962 25.5843C31.8738 25.7536 31.9259 25.7687 31.9525 25.6302C31.9785 25.4927 31.9712 25.1635 31.9296 24.6427C31.8962 24.2416 31.8301 23.8177 31.7317 23.3718C31.6343 22.925 31.5025 22.5656 31.3358 22.2948C31.2733 22.5656 31.2619 22.9401 31.3025 23.4177C31.3426 23.8958 31.4176 24.3354 31.5275 24.7364Z" fill="#FBD760"/>
<path d="M37.5381 22.6301C37.6809 22.4926 37.7428 22.4587 37.7236 22.528C37.7038 22.5962 37.6256 22.7212 37.4881 22.903C37.3506 23.0837 37.1782 23.2795 36.9715 23.4905C36.7657 23.7004 36.5486 23.8832 36.3194 24.0384C36.0902 24.1941 35.8725 24.278 35.6673 24.2905C35.4142 24.2905 35.2116 24.2155 35.059 24.0655C34.9074 23.9155 34.7991 23.7176 34.734 23.4717C34.6689 23.2259 34.6418 22.9603 34.6527 22.6738C34.6652 22.353 34.6767 22.0321 34.6881 21.7113C34.6923 21.5504 34.697 21.3936 34.7027 21.2405C34.7152 20.9821 34.7241 20.7238 34.7298 20.4655C34.735 20.3853 34.722 20.3176 34.6902 20.2634C34.66 20.2082 34.6043 20.178 34.5236 20.1738C34.4319 20.1686 34.3173 20.1655 34.1798 20.1655C34.059 20.1655 33.9564 20.1655 33.8715 20.1655C33.7506 20.153 33.6704 20.1212 33.6298 20.0696C33.5897 20.0186 33.6215 19.967 33.7256 19.9155C33.7996 19.8863 33.8876 19.8712 33.9902 19.8696C34.0934 19.867 34.1939 19.8676 34.2923 19.8717C34.3548 19.8775 34.41 19.8801 34.4569 19.8801C34.6111 19.8801 34.7048 19.8566 34.7381 19.8092C34.7715 19.7608 34.7923 19.665 34.8006 19.5217C34.81 19.3707 34.8178 19.2176 34.8236 19.0634C34.8288 18.9832 34.8361 18.9025 34.8444 18.8217C34.8444 18.7025 34.8756 18.5941 34.9381 18.4967C35.0048 18.4066 35.0902 18.3717 35.1944 18.3926C35.2861 18.4165 35.3366 18.4733 35.3465 18.5634C35.3548 18.715 35.359 18.8676 35.359 19.0217C35.3642 19.1066 35.3642 19.192 35.359 19.278C35.359 19.3696 35.3616 19.465 35.3673 19.5634C35.3616 19.6999 35.3767 19.7853 35.4131 19.8196C35.4506 19.8545 35.5407 19.8717 35.684 19.8717C35.9173 19.8717 36.1486 19.8717 36.3777 19.8717C36.4819 19.8717 36.7913 19.865 37.3069 19.8509C37.8236 19.8374 38.1017 19.879 38.1423 19.9759C38.1824 20.0733 37.8559 20.1301 37.1631 20.1467C36.7434 20.1691 36.4194 20.1801 36.1902 20.1801C36.0371 20.1759 35.8996 20.1738 35.7777 20.1738C35.572 20.1738 35.4449 20.2103 35.3965 20.2821C35.3475 20.353 35.3262 20.4962 35.3319 20.7113C35.3262 20.8978 35.3173 21.1217 35.3048 21.3842C35.2699 21.9233 35.2527 22.4728 35.2527 23.0321C35.2663 23.4186 35.3361 23.6691 35.4611 23.7842C35.5861 23.8983 35.7486 23.9196 35.9486 23.8488C36.1496 23.7769 36.3663 23.6488 36.5986 23.4655C36.8319 23.2811 37.0631 23.0832 37.2923 22.8717C37.3423 22.8066 37.4017 22.7457 37.4715 22.6884C37.4949 22.6676 37.5173 22.6483 37.5381 22.6301Z" fill="#FBD760"/>
</svg>
